<?xml version="1.0" encoding="UTF-8"?>
<svg version="1.1" xmlns="http://www.w3.org/2000/svg" width="80" height="82">
<path d="M0 0 C1.60263143 0.2596598 3.20703939 0.50844894 4.8125 0.75 C10.93187362 1.92645186 15.46805708 4.69376261 19.27734375 9.66796875 C21.42077539 13.20260885 22.76510666 16.98659839 24.10375977 20.87060547 C25.02330913 23.0553806 26.14893547 24.66358899 27.55078125 26.56640625 C30.73525066 31.58219249 30.81342684 36.18058744 30.75 42 C30.78609375 42.94617187 30.8221875 43.89234375 30.859375 44.8671875 C30.859375 50.15403964 30.23208339 53.3815215 26.77734375 57.48046875 C24.02319838 60.22900914 21.2522555 62.45864131 17.8125 64.3125 C15.38165407 65.64850824 13.11249628 66.91452796 10.90234375 68.59375 C6.09637073 72.14641999 -0.19734402 72.72398129 -6 72 C-8.2853493 71.3685755 -10.48024677 70.60915421 -12.703125 69.78515625 C-15.0256978 68.99121555 -17.2768225 68.51146846 -19.6875 68.0625 C-26.05859828 66.70836413 -30.45047883 63.44259913 -34 58 C-35.0092823 55.56232664 -35.93180483 53.09874588 -36.859375 50.62890625 C-38.37527257 47.13507385 -40.40529689 44.18128694 -42.6328125 41.10546875 C-46.7611195 34.74787598 -46.70557687 28.37729737 -46 21 C-44.29744874 14.69954086 -40.27209981 10.64191106 -35 7 C-33.01753602 5.96567096 -31.01586684 4.96761608 -29 4 C-27.49147511 2.97071768 -25.99209909 1.92795287 -24.5 0.875 C-16.5984149 -4.43223132 -8.52099876 -3.53309705 0 0 Z M-17.19140625 19.015625 C-20.45408526 22.59541104 -22.73138034 26.7437043 -25 31 C-25.38800781 31.6909375 -25.77601562 32.381875 -26.17578125 33.09375 C-27.55211115 36.27692058 -26.79684939 38.69876682 -26 42 C-23.38602515 48.40423839 -18.40367774 50.07283229 -12.2890625 52.80078125 C-9.12421084 53.95471173 -6.35802084 54.74095268 -3 55 C-0.60204619 53.18712805 -0.60204619 53.18712805 1 51 C-2.18640542 50.05754206 -5.06420667 49.93991752 -8.375 49.875 C-12.64099572 49.52710463 -14.77451995 48.93234258 -17.625 45.6875 C-21.43741031 40.60795909 -21.24962059 35.7692184 -20.65234375 29.6328125 C-19.61487554 25.44566534 -17.54781795 24.29129909 -14 22 C-13.67 21.34 -13.34 20.68 -13 20 C-9.94800533 18.8723825 -7.44072898 19.01519763 -4.25 19.4375 C-3.05117188 19.59025391 -3.05117188 19.59025391 -1.828125 19.74609375 C-1.22484375 19.82988281 -0.6215625 19.91367187 0 20 C0 19.34 0 18.68 0 18 C-1.24663331 17.49166409 -2.49749387 16.99368855 -3.75 16.5 C-4.79414062 16.08234375 -4.79414062 16.08234375 -5.859375 15.65625 C-11.22389037 14.01165405 -13.40658932 15.59708068 -17.19140625 19.015625 Z M2 19 C3 21 3 21 3 21 Z M6 22 C6 22.66 6 23.32 6 24 C5.29875 23.835 4.5975 23.67 3.875 23.5 C0.86111806 22.97584662 -1.94713625 22.92900317 -5 23 C-5 23.66 -5 24.32 -5 25 C-5.99 24.67 -6.98 24.34 -8 24 C-12.20710482 29.15709623 -13.12440607 31.28207197 -13 38 C-12.34 38 -11.68 38 -11 38 C-10.71125 38.763125 -10.4225 39.52625 -10.125 40.3125 C-9.03730987 43.15029308 -9.03730987 43.15029308 -7 46 C-5.68 45.67 -4.36 45.34 -3 45 C-3 45.66 -3 46.32 -3 47 C-1.68 47 -0.36 47 1 47 C1 46.34 1 45.68 1 45 C1.7425 45.103125 2.485 45.20625 3.25 45.3125 C6.17148796 45.26962365 6.17148796 45.26962365 8.125 42.875 C11.91437677 37.36427358 11.91437677 37.36427358 12.875 30.9375 C11.95609803 27.85261481 10.91906493 25.58335663 9 23 C8.01 22.67 7.02 22.34 6 22 Z " fill="#14120B" transform="translate(50,6)"/>
<path d="M0 0 C-0.89203125 0.04898437 -1.7840625 0.09796875 -2.703125 0.1484375 C-3.87359375 0.22320312 -5.0440625 0.29796875 -6.25 0.375 C-7.99023438 0.47941406 -7.99023438 0.47941406 -9.765625 0.5859375 C-12.70694334 0.96248308 -14.49949011 1.4774123 -17 3 C-16.12859375 3.02578125 -15.2571875 3.0515625 -14.359375 3.078125 C-4.20517315 3.56165842 5.46697191 5.10557553 14 11 C14 11.66 14 12.32 14 13 C10.96314913 11.99829247 7.93852739 10.97786673 4.9296875 9.89453125 C3.92164063 9.53746094 2.91359375 9.18039063 1.875 8.8125 C0.86179688 8.44769531 -0.15140625 8.08289062 -1.1953125 7.70703125 C-4.08272055 6.97914705 -5.25085089 7.07378453 -8 8 C-8.99 8 -9.98 8 -11 8 C-10.67 7.67 -10.34 7.34 -10 7 C-14.29 7 -18.58 7 -23 7 C-25.15296444 12.38241109 -26.13788378 15.77960329 -26.125 21.5 C-26.12757812 22.6446875 -26.13015625 23.789375 -26.1328125 24.96875 C-26.13684408 28.04679859 -26.13684408 28.04679859 -25 31 C-24.95674219 32.54105966 -24.95983991 34.0838565 -25 35.625 C-25.03774356 37.08284483 -25.04645715 38.54240683 -25 40 C-24.505 40.495 -24.505 40.495 -24 41 C-23.4225 41.886875 -22.845 42.77375 -22.25 43.6875 C-17.67087483 49.29625094 -9.6902307 51.7699231 -3 54 C1.24674388 54.23164058 4.35602463 54.33214424 8 52 C7.505 52.99 7.505 52.99 7 54 C8.60332791 54.08121924 10.20784026 54.13929134 11.8125 54.1875 C12.70582031 54.22230469 13.59914062 54.25710937 14.51953125 54.29296875 C17.00412351 54.19937601 17.00412351 54.19937601 18.69921875 52.80078125 C21.76832073 48.55196439 22.23856417 44.85466966 22.125 39.6875 C22.10695312 38.61886719 22.08890625 37.55023438 22.0703125 36.44921875 C22.04710937 35.64097656 22.02390625 34.83273438 22 34 C21.34 34.66 20.68 35.32 20 36 C20.14120714 34.06215735 20.28812873 32.12473045 20.4375 30.1875 C20.51871094 29.10855469 20.59992188 28.02960937 20.68359375 26.91796875 C21 24 21 24 22 21 C22 21.66 22 22.32 22 23 C22.66 23 23.32 23 24 23 C25.84090291 32.66474027 25.84656286 42.57076052 23 52 C23 52.99 23 53.98 23 55 C20.875 56.4375 20.875 56.4375 18 58 C16.96875 58.70125 15.9375 59.4025 14.875 60.125 C10.6384182 62.88798813 7.59497435 63.15906765 2.625 63.1875 C1.50351562 63.20167969 0.38203125 63.21585937 -0.7734375 63.23046875 C-3.9892409 63.00076851 -6.06722503 62.25414719 -9 61 C-11.31060193 60.69678147 -13.58786144 60.56446467 -15.9140625 60.44140625 C-18.44411263 59.90602111 -19.36483183 58.95282823 -21 57 C-18.36 57.33 -15.72 57.66 -13 58 C-13.7425 57.278125 -14.485 56.55625 -15.25 55.8125 C-18 53 -18 53 -20.0625 50.375 C-21.88606599 48.13966105 -23.62495353 46.61163867 -26 45 C-25.34 47.97 -24.68 50.94 -24 54 C-27.29813665 50.70186335 -27.29813665 50.70186335 -27.8125 46.875 C-28.71410223 42.14351482 -30.72006526 38.97791189 -33.5625 35.140625 C-35 33 -35 33 -36.0546875 30.34765625 C-37.18096317 27.5505832 -38.48924469 26.59014503 -41 25 C-40.75 23.125 -40.75 23.125 -40 21 C-39.01 20.5359375 -39.01 20.5359375 -38 20.0625 C-37.34 19.711875 -36.68 19.36125 -36 19 C-35.64080332 17.33871537 -35.31088368 15.67099977 -35 14 C-32.29256961 9.48761602 -28.84112602 7.61931879 -24.3125 5.265625 C-22.11922771 4.06525301 -20.1850569 2.74816767 -18.1875 1.25 C-12.77290609 -2.57206629 -5.75218964 -3.83479309 0 0 Z " fill="#B8A76F" transform="translate(45,10)"/>
<path d="M0 0 C1.60263143 0.2596598 3.20703939 0.50844894 4.8125 0.75 C10.93187362 1.92645186 15.46805708 4.69376261 19.27734375 9.66796875 C21.43881383 13.23235526 22.78331006 17.05125235 24.140625 20.96484375 C25.08645017 23.20472973 26.29930666 25.00739664 27.6875 27 C30.44099869 31.15498007 30.43777803 34.09688605 30 39 C29.01 39.495 29.01 39.495 28 40 C27.65388672 39.03900391 27.65388672 39.03900391 27.30078125 38.05859375 C25.6926299 33.79349669 24.22970838 30.03626713 21.3125 26.5 C18.13466198 22.43509676 18.11088825 18.01013284 18 13 C17.34 13 16.68 13 16 13 C16.495 14.1446875 16.495 14.1446875 17 15.3125 C18 18 18 18 18 21 C14.20620942 19.50958227 12.31656242 17.30937488 10 14 C10 13.34 10 12.68 10 12 C9.34 12 8.68 12 8 12 C6.97895449 11.02149805 5.9793879 10.02019573 5 9 C4.34 8.67 3.68 8.34 3 8 C3 7.34 3 6.68 3 6 C3.763125 6.165 4.52625 6.33 5.3125 6.5 C8.03596236 7.09145396 8.03596236 7.09145396 11 7 C6.3106448 5.50339728 1.92070144 4.66628386 -2.984375 4.24609375 C-5 4 -5 4 -8 3 C-16.39943249 2.44003783 -21.45077094 4.72866929 -28 10 C-29.3446094 10.64530451 -30.69970889 11.26903569 -32.0625 11.875 C-36.07112526 13.7885513 -37.89091956 16.03492877 -40 20 C-40.33 20.99 -40.66 21.98 -41 23 C-43.5625 24.1875 -43.5625 24.1875 -46 25 C-45.49563583 18.69544785 -44.0199071 14.59029688 -39.1328125 10.3984375 C-35.56868129 7.6681785 -31.89261703 5.23825479 -28 3 C-27.38253906 2.58621094 -26.76507812 2.17242187 -26.12890625 1.74609375 C-17.49725475 -3.98114571 -9.45862595 -3.9218693 0 0 Z " fill="#040301" transform="translate(50,6)"/>
<path d="M0 0 C3.50750831 0.95280362 4.76065186 1.61963636 6.73046875 4.75 C7.21128906 5.8225 7.69210938 6.895 8.1875 8 C10.08787954 12.34948576 10.08787954 12.34948576 13 16 C13.6328125 18.8203125 13.6328125 18.8203125 14.125 22.125 C14.29257812 23.22070312 14.46015625 24.31640625 14.6328125 25.4453125 C14.75398438 26.28835937 14.87515625 27.13140625 15 28 C15.66 28 16.32 28 17 28 C16.484375 26.906875 15.96875 25.81375 15.4375 24.6875 C14 21 14 21 15 18 C18.56720996 20.67540747 21.41126424 23.35659412 24 27 C24 27.66 24 28.32 24 29 C24.639375 29.28875 25.27875 29.5775 25.9375 29.875 C28 31 28 31 29 33 C25.28400809 33.20086443 24.22791555 33.1519437 21 31 C20.67 31.66 20.34 32.32 20 33 C20.90363281 33.04898438 21.80726562 33.09796875 22.73828125 33.1484375 C23.91777344 33.22320312 25.09726562 33.29796875 26.3125 33.375 C27.48425781 33.44460937 28.65601563 33.51421875 29.86328125 33.5859375 C33 34 33 34 36 36 C42.5139112 37.46174725 48.31611351 38.00419257 54.1875 34.5 C55.80887394 33.3573678 57.41285414 32.18971838 59 31 C59.89074219 30.4225 60.78148437 29.845 61.69921875 29.25 C66.63233605 26.02366927 70.29339077 23.29019077 73 18 C73 17.34 73 16.68 73 16 C73.66 16 74.32 16 75 16 C75.33 15.34 75.66 14.68 76 14 C76.58944761 18.04192645 76.82498467 21.51823142 74.79296875 25.16796875 C70.97205748 29.79422432 66.56187276 32.80142741 61.33203125 35.67578125 C58.9740838 36.94640705 58.9740838 36.94640705 56.90234375 38.59375 C52.09637073 42.14641999 45.80265598 42.72398129 40 42 C37.7146507 41.3685755 35.51975323 40.60915421 33.296875 39.78515625 C30.9743022 38.99121555 28.7231775 38.51146846 26.3125 38.0625 C19.94140172 36.70836413 15.54952117 33.44259913 12 28 C10.9907177 25.56232664 10.06819517 23.09874588 9.140625 20.62890625 C7.62472743 17.13507385 5.59470311 14.18128694 3.3671875 11.10546875 C0.88717763 7.28625355 0 4.58514491 0 0 Z " fill="#050402" transform="translate(4,36)"/>
<path d="M0 0 C0.71583252 0.00410889 1.43166504 0.00821777 2.16918945 0.01245117 C18.29369719 0.18141784 18.29369719 0.18141784 23.4375 4.125 C22.7775 4.455 22.1175 4.785 21.4375 5.125 C19.76209336 4.48061283 18.09566784 3.81253301 16.4375 3.125 C15.4475 3.125 14.4575 3.125 13.4375 3.125 C14.21673828 3.77855469 14.21673828 3.77855469 15.01171875 4.4453125 C18.35081563 7.29681483 21.54638821 10.0776635 24.3125 13.5 C26.16852809 16.16293194 26.16852809 16.16293194 28.4375 17.125 C27.7775 14.485 27.1175 11.845 26.4375 9.125 C27.0975 9.455 27.7575 9.785 28.4375 10.125 C28.92033757 11.77371367 29.32371608 13.44599728 29.6875 15.125 C30.98859428 20.29584377 33.03305004 23.83261343 36.140625 28.109375 C37.81302887 30.7086533 38.2802801 33.05921195 38.4375 36.125 C39.0975 36.125 39.7575 36.125 40.4375 36.125 C39.65275836 42.40293314 37.0748827 48.05795813 32.1875 52.125 C31.28 52.785 30.3725 53.445 29.4375 54.125 C28.3125 52.375 28.3125 52.375 27.4375 50.125 C28.25 48.1875 28.25 48.1875 29.4375 46.125 C30.83930383 41.35522593 30.33580005 36.70282948 30 31.8125 C29.92168945 30.55856445 29.92168945 30.55856445 29.84179688 29.27929688 C29.71282629 27.22749211 29.57594979 25.17618694 29.4375 23.125 C28.7775 23.125 28.1175 23.125 27.4375 23.125 C27.4375 22.465 27.4375 21.805 27.4375 21.125 C26.7775 21.125 26.1175 21.125 25.4375 21.125 C24.4310725 19.46220673 23.43164593 17.79516516 22.4375 16.125 C21.4475 15.465 20.4575 14.805 19.4375 14.125 C18.9425 12.64 18.9425 12.64 18.4375 11.125 C16.58737966 9.94912184 16.58737966 9.94912184 14.3125 9.0625 C13.19488281 8.58103516 13.19488281 8.58103516 12.0546875 8.08984375 C5.97504202 5.84854161 0.42235798 4.78204317 -6 4.5 C-6.73154297 4.46132812 -7.46308594 4.42265625 -8.21679688 4.3828125 C-9.99833532 4.28966016 -11.78038122 4.20629714 -13.5625 4.125 C-9.58992774 -0.22591247 -5.5928276 -0.038064 0 0 Z " fill="#C19237" transform="translate(39.5625,9.875)"/>
<path d="M0 0 C5.82916821 0.05003578 10.8872942 1.23061769 16 4 C16.33 4.99 16.66 5.98 17 7 C16.34773438 6.90460937 15.69546875 6.80921875 15.0234375 6.7109375 C7.79958919 5.74769459 7.79958919 5.74769459 1 8 C-0.43923199 10.50995496 -0.43923199 10.50995496 -1 13 C-1.66 13 -2.32 13 -3 13 C-3 15.31 -3 17.62 -3 20 C-2.34 20 -1.68 20 -1 20 C0.32 22.31 1.64 24.62 3 27 C4.32 27 5.64 27 7 27 C7 27.66 7 28.32 7 29 C8.32 29 9.64 29 11 29 C11 28.34 11 27.68 11 27 C12.32 26.67 13.64 26.34 15 26 C15 26.99 15 27.98 15 29 C9.37898181 32.49987925 5.26054029 33.7551305 -1.37109375 32.87890625 C-5.95663506 31.34585009 -8.590518 28.08399623 -11 24 C-12.20288652 20.7139022 -11.99986606 17.8343376 -11.6875 14.375 C-11.60886719 13.41335937 -11.53023437 12.45171875 -11.44921875 11.4609375 C-11 9 -11 9 -9 7 C-8.38125 6.34 -7.7625 5.68 -7.125 5 C-5.12543654 3.11805792 -3.47834364 2.11098163 -1 1 C-0.67 0.67 -0.34 0.34 0 0 Z " fill="#DEC886" transform="translate(40,24)"/>
<path d="M0 0 C-0.89203125 0.04898437 -1.7840625 0.09796875 -2.703125 0.1484375 C-3.87359375 0.22320312 -5.0440625 0.29796875 -6.25 0.375 C-7.99023438 0.47941406 -7.99023438 0.47941406 -9.765625 0.5859375 C-12.70694334 0.96248308 -14.49949011 1.4774123 -17 3 C-16.12859375 3.02578125 -15.2571875 3.0515625 -14.359375 3.078125 C-4.20517315 3.56165842 5.46697191 5.10557553 14 11 C14 11.66 14 12.32 14 13 C10.96314913 11.99829247 7.93852739 10.97786673 4.9296875 9.89453125 C3.92164063 9.53746094 2.91359375 9.18039063 1.875 8.8125 C0.86179688 8.44769531 -0.15140625 8.08289062 -1.1953125 7.70703125 C-4.08272055 6.97914705 -5.25085089 7.07378453 -8 8 C-8.99 8 -9.98 8 -11 8 C-10.67 7.67 -10.34 7.34 -10 7 C-14.29 7 -18.58 7 -23 7 C-23.66 8.65 -24.32 10.3 -25 12 C-25.66 11.34 -26.32 10.68 -27 10 C-31.44074058 13.9146764 -31.44074058 13.9146764 -33.140625 19.328125 C-32.84555763 21.67124031 -32.84555763 21.67124031 -32.33203125 23.88671875 C-32 26 -32 26 -32.5703125 27.97265625 C-33.16466672 30.77692753 -32.29796914 32.20418481 -31.0625 34.75 C-30.49208984 35.94882813 -30.49208984 35.94882813 -29.91015625 37.171875 C-29.60980469 37.77515625 -29.30945312 38.3784375 -29 39 C-31.58943476 38.00198869 -32.77216882 37.41689942 -34.125 34.94140625 C-34.41375 34.15636719 -34.7025 33.37132812 -35 32.5625 C-36.43560763 29.01905578 -37.5024945 26.87366366 -41 25 C-40.75 23.125 -40.75 23.125 -40 21 C-39.01 20.5359375 -39.01 20.5359375 -38 20.0625 C-37.34 19.711875 -36.68 19.36125 -36 19 C-35.64080332 17.33871537 -35.31088368 15.67099977 -35 14 C-32.29256961 9.48761602 -28.84112602 7.61931879 -24.3125 5.265625 C-22.11922771 4.06525301 -20.1850569 2.74816767 -18.1875 1.25 C-12.77290609 -2.57206629 -5.75218964 -3.83479309 0 0 Z " fill="#DCBA6A" transform="translate(45,10)"/>
<path d="M0 0 C0.33 0.66 0.66 1.32 1 2 C1.66 2 2.32 2 3 2 C4.84090291 11.66474027 4.84656286 21.57076052 2 31 C2 31.99 2 32.98 2 34 C-5.20181038 39.52138796 -14.03574353 42.05157624 -23 41 C-23.66 40.67 -24.32 40.34 -25 40 C-25 39.34 -25 38.68 -25 38 C-23.35443434 36.96564444 -21.6829392 35.97236487 -20 35 C-18.31522656 33.68962066 -16.64351457 32.36176922 -15 31 C-14.34 31.33 -13.68 31.66 -13 32 C-13.495 32.495 -13.495 32.495 -14 33 C-12.39667209 33.08121924 -10.79215974 33.13929134 -9.1875 33.1875 C-8.29417969 33.22230469 -7.40085937 33.25710937 -6.48046875 33.29296875 C-3.99587649 33.19937601 -3.99587649 33.19937601 -2.30078125 31.80078125 C0.76832073 27.55196439 1.23856417 23.85466966 1.125 18.6875 C1.10695313 17.61886719 1.08890625 16.55023438 1.0703125 15.44921875 C1.04710938 14.64097656 1.02390625 13.83273438 1 13 C0.34 13.66 -0.32 14.32 -1 15 C-0.9278125 14.16855469 -0.855625 13.33710937 -0.78125 12.48046875 C-0.64203125 10.85044922 -0.64203125 10.85044922 -0.5 9.1875 C-0.36078125 7.56908203 -0.36078125 7.56908203 -0.21875 5.91796875 C0.03737838 2.98909189 0.03737838 2.98909189 0 0 Z " fill="#CCA84E" transform="translate(66,31)"/>
<path d="M0 0 C0.90105469 0.00902344 1.80210938 0.01804687 2.73046875 0.02734375 C3.41753906 0.03894531 4.10460937 0.05054688 4.8125 0.0625 C3.57226392 3.78320823 1.85519852 4.68771091 -1.1875 7.0625 C-2.1775 8.5475 -2.1775 8.5475 -3.1875 10.0625 C-3.8475 10.0625 -4.5075 10.0625 -5.1875 10.0625 C-5.5175 12.0425 -5.8475 14.0225 -6.1875 16.0625 C-7.1775 16.0625 -8.1675 16.0625 -9.1875 16.0625 C-9.8475 18.3725 -10.5075 20.6825 -11.1875 23.0625 C-11.5175 23.0625 -11.8475 23.0625 -12.1875 23.0625 C-12.21449725 20.79173158 -12.23389453 18.52087179 -12.25 16.25 C-12.26740234 14.35314453 -12.26740234 14.35314453 -12.28515625 12.41796875 C-12.1875 9.0625 -12.1875 9.0625 -11.1875 6.0625 C-10.5275 6.0625 -9.8675 6.0625 -9.1875 6.0625 C-8.8575 4.4125 -8.5275 2.7625 -8.1875 1.0625 C-5.17259443 0.05753148 -3.14568308 -0.04085303 0 0 Z " fill="#0A0905" transform="translate(30.1875,15.9375)"/>
<path d="M0 0 C0.33 0 0.66 0 1 0 C1.75195822 14.87206266 1.75195822 14.87206266 -3 22 C-5.64458379 23.32229189 -7.67761301 23.09677194 -10.625 23.0625 C-11.62789062 23.05347656 -12.63078125 23.04445313 -13.6640625 23.03515625 C-14.43492188 23.02355469 -15.20578125 23.01195313 -16 23 C-15.06409496 21.8944811 -14.12620142 20.79064547 -13.1875 19.6875 C-12.40439453 18.76517578 -12.40439453 18.76517578 -11.60546875 17.82421875 C-10 16 -10 16 -8.36328125 14.39453125 C-6.8848385 13.0242255 -6.8848385 13.0242255 -6 11 C-5.34 11 -4.68 11 -4 11 C-3.79503906 10.37351562 -3.59007812 9.74703125 -3.37890625 9.1015625 C-3.10949219 8.28429688 -2.84007813 7.46703125 -2.5625 6.625 C-2.29566406 5.81289063 -2.02882813 5.00078125 -1.75390625 4.1640625 C-1 2 -1 2 0 0 Z " fill="#020100" transform="translate(67,42)"/>
<path d="M0 0 C0.79148437 -0.02578125 1.58296875 -0.0515625 2.3984375 -0.078125 C5.16098652 0.32898749 5.90539609 1.09798108 7.625 3.25 C9.95036063 6.73804095 9.95957898 8.15140754 9.625 12.25 C8.74901156 15.11687127 8.05749885 15.98286836 5.5 17.5625 C1.575201 18.50103889 -1.40384529 17.92307707 -5.375 17.25 C-5.045 16.59 -4.715 15.93 -4.375 15.25 C-3.385 15.25 -2.395 15.25 -1.375 15.25 C0.03877341 12.61095629 0.99740135 10.17879371 1.625 7.25 C1.026875 6.816875 0.42875 6.38375 -0.1875 5.9375 C-2.08283087 4.47538761 -3.7278593 2.97949773 -5.375 1.25 C-3.79577594 -0.32922406 -2.18056126 0.042341 0 0 Z " fill="#C6A75D" transform="translate(48.375,31.75)"/>
<path d="M0 0 C-0.89203125 0.04898437 -1.7840625 0.09796875 -2.703125 0.1484375 C-3.87359375 0.22320312 -5.0440625 0.29796875 -6.25 0.375 C-7.99023438 0.47941406 -7.99023438 0.47941406 -9.765625 0.5859375 C-12.70694334 0.96248308 -14.49949011 1.4774123 -17 3 C-16.12859375 3.02578125 -15.2571875 3.0515625 -14.359375 3.078125 C-4.20517315 3.56165842 5.46697191 5.10557553 14 11 C14 11.66 14 12.32 14 13 C10.96314913 11.99829247 7.93852739 10.97786673 4.9296875 9.89453125 C3.92164062 9.53746094 2.91359375 9.18039063 1.875 8.8125 C0.86179687 8.44769531 -0.15140625 8.08289062 -1.1953125 7.70703125 C-4.08272055 6.97914705 -5.25085089 7.07378453 -8 8 C-8.99 8 -9.98 8 -11 8 C-10.67 7.67 -10.34 7.34 -10 7 C-17.56407533 6.79410279 -17.56407533 6.79410279 -25 8 C-25 7.34 -25 6.68 -25 6 C-22.953125 4.30859375 -22.953125 4.30859375 -20.25 2.4375 C-19.36828125 1.81746094 -18.4865625 1.19742187 -17.578125 0.55859375 C-12.20505277 -2.68967265 -5.35480096 -3.56986731 0 0 Z " fill="#CEA953" transform="translate(45,10)"/>
<path d="M0 0 C3.79257566 3.47652769 7.3255318 7.02764626 9 12 C8.93933625 14.74503474 8.45345525 17.2792685 8 20 C8.66 20.99 9.32 21.98 10 23 C8.1627685 27.04190931 6.42607122 30.12652091 3 33 C2.34 33 1.68 33 1 33 C1.309375 32.113125 1.61875 31.22625 1.9375 30.3125 C3.91305157 24.15342745 4.00164909 19.08292416 3.5625 12.6875 C3.51029297 11.85154297 3.45808594 11.01558594 3.40429688 10.15429688 C3.27532629 8.10249211 3.13844979 6.05118694 3 4 C2.34 4 1.68 4 1 4 C0.67 2.68 0.34 1.36 0 0 Z " fill="#100C04" transform="translate(66,29)"/>
<path d="M0 0 C0.99 0 1.98 0 3 0 C4.32 2.31 5.64 4.62 7 7 C8.32 7 9.64 7 11 7 C11 7.66 11 8.32 11 9 C12.32 9 13.64 9 15 9 C15 8.34 15 7.68 15 7 C16.32 6.67 17.64 6.34 19 6 C19 6.99 19 7.98 19 9 C13.26613938 12.57013963 9.24406724 13.63282744 2.5 12.76171875 C-1.51048941 11.53977276 -2.836809 9.50586127 -5 6 C-3 7 -1 8 1 9 C0.67 6.03 0.34 3.06 0 0 Z " fill="#AD9C5B" transform="translate(36,44)"/>
<path d="M0 0 C3 1.625 3 1.625 4 4.625 C3.34773438 4.52960937 2.69546875 4.43421875 2.0234375 4.3359375 C-5.20041081 3.37269459 -5.20041081 3.37269459 -12 5.625 C-13.43923199 8.13495496 -13.43923199 8.13495496 -14 10.625 C-14.99 10.295 -15.98 9.965 -17 9.625 C-16.96744792 7.60677083 -16.93489583 5.58854167 -16.90234375 3.5703125 C-16.87350758 1.54314596 -16.87350758 1.54314596 -18 -0.375 C-12.1836035 -3.56463679 -5.95283164 -2.31499008 0 0 Z " fill="#BD9D55" transform="translate(53,26.375)"/>
<path d="M0 0 C1.14606879 3.43820638 0.84528008 3.96629668 -0.4375 7.1875 C-3.11289279 14.76167137 -1.8980594 22.17405382 -1 30 C-3.8731967 27.28014807 -5.49273059 24.69281006 -7 21 C-6.75729722 18.75499925 -6.59515008 17.59515008 -5 16 C-5.5259375 14.9171875 -5.5259375 14.9171875 -6.0625 13.8125 C-7.16934744 10.49195769 -7.27043255 9.2554834 -6 6 C-4.1261427 3.80950753 -2.13550949 1.953764 0 0 Z " fill="#131009" transform="translate(18,19)"/>
<path d="M0 0 C1.76923828 0.01353516 1.76923828 0.01353516 3.57421875 0.02734375 C4.47785156 0.03894531 5.38148437 0.05054688 6.3125 0.0625 C6.3125 0.7225 6.3125 1.3825 6.3125 2.0625 C9.2825 2.5575 9.2825 2.5575 12.3125 3.0625 C12.3125 3.7225 12.3125 4.3825 12.3125 5.0625 C12.910625 5.145 13.50875 5.2275 14.125 5.3125 C16.9091296 6.26705872 17.74561142 7.63382271 19.3125 10.0625 C18.74402344 9.86914062 18.17554687 9.67578125 17.58984375 9.4765625 C16.81769531 9.21617188 16.04554687 8.95578125 15.25 8.6875 C14.11884766 8.30464844 14.11884766 8.30464844 12.96484375 7.9140625 C12.08957031 7.63304687 11.21429688 7.35203125 10.3125 7.0625 C9.2296875 6.711875 8.146875 6.36125 7.03125 6 C2.92253466 4.96418941 -0.90975251 4.62261608 -5.125 4.4375 C-5.85654297 4.39882812 -6.58808594 4.36015625 -7.34179688 4.3203125 C-9.12333532 4.22716016 -10.90538122 4.14379714 -12.6875 4.0625 C-8.86259178 -0.1266852 -5.49675584 -0.05442333 0 0 Z " fill="#0F0B05" transform="translate(38.6875,9.9375)"/>
<path d="M0 0 C2.26831293 1.05314529 4.04044105 2.03522285 5.9375 3.6875 C7.98432219 5.29365667 7.98432219 5.29365667 10.75 4.6875 C11.86375 4.3471875 11.86375 4.3471875 13 4 C10.525 3.01 10.525 3.01 8 2 C8 1.34 8 0.68 8 0 C9.6266848 0.28211877 11.25132896 0.57602375 12.875 0.875 C13.77992187 1.03742188 14.68484375 1.19984375 15.6171875 1.3671875 C18 2 18 2 20 4 C17.35261084 5.4606285 16.10551666 6 13 6 C13 6.66 13 7.32 13 8 C19.70518586 8.19818283 25.65176798 8.30844801 32 6 C29.22225255 9.04229482 27.23143939 9.93014262 23.0390625 10.16796875 C21.91242187 10.17441406 20.78578125 10.18085937 19.625 10.1875 C18.50351562 10.20167969 17.38203125 10.21585938 16.2265625 10.23046875 C13.0107591 10.00076851 10.93277497 9.25414719 8 8 C5.68939807 7.69678147 3.41213856 7.56446467 1.0859375 7.44140625 C-1.44411263 6.90602111 -2.36483183 5.95282823 -4 4 C-1.36 4.33 1.28 4.66 4 5 C3.01 4.319375 3.01 4.319375 2 3.625 C1.34 3.08875 0.68 2.5525 0 2 C0 1.34 0 0.68 0 0 Z " fill="#D4C789" transform="translate(28,63)"/>
<path d="M0 0 C3.38891322 0.68886787 6.18011613 1.98716486 9.25 3.5625 C10.14203125 4.01753906 11.0340625 4.47257812 11.953125 4.94140625 C12.96632813 5.46541016 12.96632813 5.46541016 14 6 C14 6.99 14 7.98 14 9 C16.31 9.66 18.62 10.32 21 11 C18 13 18 13 15.625 12.875 C12.43437949 11.81145983 10.55369114 10.17063747 8 8 C7.13375 7.525625 6.2675 7.05125 5.375 6.5625 C2.60048517 4.73716129 1.50189593 2.92474471 0 0 Z " fill="#D7B663" transform="translate(22,56)"/>
<path d="M0 0 C4.39855184 0.66644725 8.12947427 1.77803153 12 4 C14.10956179 7.5455442 15 10.89198963 15 15 C11.20620942 13.50958227 9.31656242 11.30937488 7 8 C7 7.34 7 6.68 7 6 C6.34 6 5.68 6 5 6 C3.97895449 5.02149805 2.9793879 4.02019573 2 3 C1.34 2.67 0.68 2.34 0 2 C0 1.34 0 0.68 0 0 Z " fill="#161106" transform="translate(53,12)"/>
<path d="M0 0 C4.16204606 2.55398281 7.22931926 4.95054353 10 9 C10 9.66 10 10.32 10 11 C10.639375 11.28875 11.27875 11.5775 11.9375 11.875 C14 13 14 13 15 15 C11.3323555 15.20375803 9.18443445 14.80451285 6 13 C5.01 12.67 4.02 12.34 3 12 C2.05078125 10.0390625 2.05078125 10.0390625 1.3125 7.625 C1.06113281 6.83351563 0.80976563 6.04203125 0.55078125 5.2265625 C0 3 0 3 0 0 Z " fill="#16130A" transform="translate(18,54)"/>
<path d="M0 0 C1.26328125 0.11085938 2.5265625 0.22171875 3.828125 0.3359375 C4.79234375 0.43132812 5.7565625 0.52671875 6.75 0.625 C4.16696327 3.45404022 2.26671615 4.54142083 -1.66015625 4.7578125 C-2.53542969 4.75523438 -3.41070312 4.75265625 -4.3125 4.75 C-5.62927734 4.75386719 -5.62927734 4.75386719 -6.97265625 4.7578125 C-9.25 4.625 -9.25 4.625 -11.25 3.625 C-11.25 2.965 -11.25 2.305 -11.25 1.625 C-7.48564408 -0.86555871 -4.38382623 -0.40590984 0 0 Z " fill="#12100A" transform="translate(52.25,67.375)"/>
<path d="M0 0 C0.66 0.33 1.32 0.66 2 1 C1.67 1.33 1.34 1.66 1 2 C4.96 2.33 8.92 2.66 13 3 C12.34 4.32 11.68 5.64 11 7 C4.07 6.505 4.07 6.505 -3 6 C-3 5.34 -3 4.68 -3 4 C-3.66 3.67 -4.32 3.34 -5 3 C-2.625 1.4375 -2.625 1.4375 0 0 Z " fill="#B69E5D" transform="translate(51,62)"/>
<path d="M0 0 C2.06326977 0.08760589 4.1256716 0.19579273 6.1875 0.3125 C7.91033203 0.39951172 7.91033203 0.39951172 9.66796875 0.48828125 C13.14680104 1.02254506 15.14531638 1.9947326 18 4 C17.01 4.495 17.01 4.495 16 5 C14.32459336 4.35561283 12.65816784 3.68753301 11 3 C10.01 3 9.02 3 8 3 C8.55429687 3.45890625 9.10859375 3.9178125 9.6796875 4.390625 C10.40414062 5.00421875 11.12859375 5.6178125 11.875 6.25 C12.59429687 6.85328125 13.31359375 7.4565625 14.0546875 8.078125 C15.97052118 9.97087634 16.96449045 11.53657727 18 14 C17.01 14.33 16.02 14.66 15 15 C14.70867188 14.46890625 14.41734375 13.9378125 14.1171875 13.390625 C11.37793019 8.67014385 9.0248586 5.5124293 4 3 C1.24741188 2.66290938 1.24741188 2.66290938 -1 3 C-0.67 2.01 -0.34 1.02 0 0 Z " fill="#BA8D35" transform="translate(45,10)"/>
<path d="M0 0 C2.97 0.495 2.97 0.495 6 1 C4.31340881 8.49781629 1.20221939 13.48929499 -5 18 C-5 13.72899427 -2.68440102 12.20818658 0 9 C1.37645058 5.75550934 0.84375737 3.37502949 0 0 Z " fill="#D19F3D" transform="translate(74,46)"/>
<path d="M0 0 C0.99 0 1.98 0 3 0 C4.75 2.3125 4.75 2.3125 6 5 C5 8 5 8 4 10 C3.34 10 2.68 10 2 10 C2 10.66 2 11.32 2 12 C-1.36720387 10.60667426 -2.9859524 9.0210714 -5 6 C-3 7 -1 8 1 9 C0.67 6.03 0.34 3.06 0 0 Z " fill="#9E9367" transform="translate(36,44)"/>
<path d="M0 0 C2.03219488 3.40351338 2.36891039 6.3232927 2.625 10.25 C2.69976563 11.32765625 2.77453125 12.4053125 2.8515625 13.515625 C2.92503906 14.74539062 2.92503906 14.74539062 3 16 C0.1268033 13.28014807 -1.49273059 10.69281006 -3 7 C-2.6875 4.625 -2.6875 4.625 -2 3 C-1.34 3 -0.68 3 0 3 C0 2.01 0 1.02 0 0 Z " fill="#070603" transform="translate(14,33)"/>
<path d="M0 0 C0.33 0.66 0.66 1.32 1 2 C1.66 2.33 2.32 2.66 3 3 C2.01 3.99 1.02 4.98 0 6 C-0.33 5.34 -0.66 4.68 -1 4 C-1.98169476 5.12279462 -2.96027298 6.24831473 -3.9375 7.375 C-4.48277344 8.00148438 -5.02804688 8.62796875 -5.58984375 9.2734375 C-7.06958624 10.95632334 -7.06958624 10.95632334 -8 13 C-8.66 13 -9.32 13 -10 13 C-9.49445676 8.57649669 -8.04984798 6.21928398 -5 3 C-2.25 1.1875 -2.25 1.1875 0 0 Z " fill="#C6B26B" transform="translate(19,16)"/>
<path d="M0 0 C7.45071559 1.06212329 13.43657756 3.34124111 20 7 C20 7.66 20 8.32 20 9 C14 7 8 5 2 3 C2 2.34 2 1.68 2 1 C1.34 0.67 0.68 0.34 0 0 Z " fill="#D2A84F" transform="translate(39,14)"/>
<path d="M0 0 C0 0.66 0 1.32 0 2 C0.598125 2.0825 1.19625 2.165 1.8125 2.25 C4.5966296 3.20455872 5.43311142 4.57132271 7 7 C6.43152344 6.80664062 5.86304688 6.61328125 5.27734375 6.4140625 C0.54635062 4.81863577 -4.18794425 3.33099414 -9 2 C-9 1.34 -9 0.68 -9 0 C-5.62182575 -0.84454356 -3.32534757 -1.10844919 0 0 Z " fill="#1C1509" transform="translate(51,13)"/>
<path d="M0 0 C2.93221231 0.62833121 5.45547513 1.38846758 8 3 C9.25 5.125 9.25 5.125 10 7 C9.01 7.33 8.02 7.66 7 8 C6.34 7.34 5.68 6.68 5 6 C5.66 8.97 6.32 11.94 7 15 C3.9625128 11.9625128 3.61078445 11.42204536 2.9375 7.5 C2.36319751 4.21827148 1.91931552 2.87897329 0 0 Z " fill="#BF9A49" transform="translate(14,49)"/>
<path d="M0 0 C0.33 0.66 0.66 1.32 1 2 C1.66 2 2.32 2 3 2 C3.83288874 8.25307239 4.03863773 13.76817361 3 20 C2.67 20 2.34 20 2 20 C1.67 17.69 1.34 15.38 1 13 C0.34 13.66 -0.32 14.32 -1 15 C-0.89171875 13.75283203 -0.89171875 13.75283203 -0.78125 12.48046875 C-0.6884375 11.39378906 -0.595625 10.30710937 -0.5 9.1875 C-0.4071875 8.10855469 -0.314375 7.02960937 -0.21875 5.91796875 C0.03737838 2.98909189 0.03737838 2.98909189 0 0 Z " fill="#8F6F2E" transform="translate(66,31)"/>
<path d="M0 0 C4.95 1.98 9.9 3.96 15 6 C12 8 12 8 9.75 7.9375 C6.02945836 6.66913353 2.89071643 4.67412096 0 2 C0 1.34 0 0.68 0 0 Z " fill="#0D0B07" transform="translate(28,61)"/>
<path d="M0 0 C5.90528268 0.38832925 10.75789181 1.16052473 16 4 C16.33 4.99 16.66 5.98 17 7 C13.7 6.67 10.4 6.34 7 6 C7 5.01 7 4.02 7 3 C4.69 2.67 2.38 2.34 0 2 C0 1.34 0 0.68 0 0 Z " fill="#806226" transform="translate(40,24)"/>
<path d="M0 0 C2.87793751 1.29010992 4.96183917 2.57361806 7 5 C7.33 5.99 7.66 6.98 8 8 C6.56138706 7.91253716 5.12402492 7.80434652 3.6875 7.6875 C2.88699219 7.62949219 2.08648437 7.57148437 1.26171875 7.51171875 C-1.36272334 6.91793306 -2.30820672 6.04219706 -4 4 C-1.36 4.33 1.28 4.66 4 5 C3.01 4.319375 3.01 4.319375 2 3.625 C1.34 3.08875 0.68 2.5525 0 2 C0 1.34 0 0.68 0 0 Z " fill="#AF9C5E" transform="translate(28,63)"/>
<path d="M0 0 C1.23556641 0.01740234 1.23556641 0.01740234 2.49609375 0.03515625 C3.32238281 0.04417969 4.14867187 0.05320312 5 0.0625 C5.63808594 0.07410156 6.27617188 0.08570312 6.93359375 0.09765625 C6.27359375 2.07765625 5.61359375 4.05765625 4.93359375 6.09765625 C1.55855706 4.91183255 -0.71363356 3.82191936 -3.06640625 1.09765625 C-2.06640625 0.09765625 -2.06640625 0.09765625 0 0 Z " fill="#856733" transform="translate(46.06640625,31.90234375)"/>
<path d="M0 0 C2.32536063 3.48804095 2.33457898 4.90140754 2 9 C1.1875 11.3125 1.1875 11.3125 0 13 C-0.99 13.33 -1.98 13.66 -3 14 C-3 11.69 -3 9.38 -3 7 C-2.01 7 -1.02 7 0 7 C0 4.69 0 2.38 0 0 Z " fill="#866F3A" transform="translate(56,35)"/>
<path d="M0 0 C2.31 0 4.62 0 7 0 C7 0.99 7 1.98 7 3 C2.56923077 5.09230769 2.56923077 5.09230769 -0.3125 4.625 C-0.869375 4.41875 -1.42625 4.2125 -2 4 C-1.34 3.67 -0.68 3.34 0 3 C0 2.01 0 1.02 0 0 Z " fill="#D1C083" transform="translate(40,51)"/>
<path d="M0 0 C0.66 0 1.32 0 2 0 C3.65 3.63 5.3 7.26 7 11 C2.45458879 8.7272944 1.85854361 7.55343183 0 3 C0 2.01 0 1.02 0 0 Z " fill="#E4C975" transform="translate(9,38)"/>
<path d="M0 0 C0.99 0 1.98 0 3 0 C4.25664978 2.90600261 5 4.79604584 5 8 C5.66 8.33 6.32 8.66 7 9 C4 9 4 9 2 8 C1.3671875 6.15234375 1.3671875 6.15234375 0.875 3.9375 C0.70742187 3.20402344 0.53984375 2.47054687 0.3671875 1.71484375 C0.24601562 1.14894531 0.12484375 0.58304688 0 0 Z " fill="#BA8E38" transform="translate(73,38)"/>
<path d="M0 0 C2.97 0.495 2.97 0.495 6 1 C5.67 2.32 5.34 3.64 5 5 C3.35 4.67 1.7 4.34 0 4 C0 2.68 0 1.36 0 0 Z " fill="#EACC7C" transform="translate(74,46)"/>
<path d="M0 0 C1.5 1.25 1.5 1.25 3 3 C3 4.32 3 5.64 3 7 C1.68 6.67 0.36 6.34 -1 6 C-1.625 4.125 -1.625 4.125 -2 2 C-1.34 1.34 -0.68 0.68 0 0 Z " fill="#D9C787" transform="translate(6,30)"/>
<path d="M0 0 C1.6266848 0.28211877 3.25132896 0.57602375 4.875 0.875 C5.77992187 1.03742188 6.68484375 1.19984375 7.6171875 1.3671875 C10 2 10 2 12 4 C10.3745692 3.85904936 8.74965949 3.71207913 7.125 3.5625 C6.22007813 3.48128906 5.31515625 3.40007812 4.3828125 3.31640625 C2 3 2 3 0 2 C0 1.34 0 0.68 0 0 Z " fill="#EFE5A0" transform="translate(36,63)"/>
<path d="M0 0 C1.98 0 3.96 0 6 0 C4.515 2.475 4.515 2.475 3 5 C2.01 4.67 1.02 4.34 0 4 C0 2.68 0 1.36 0 0 Z " fill="#C08C3D" transform="translate(42,26)"/>
<path d="M0 0 C3.96 1.98 3.96 1.98 8 4 C8 4.66 8 5.32 8 6 C2.25 4.125 2.25 4.125 0 3 C0 2.01 0 1.02 0 0 Z " fill="#CA9D42" transform="translate(51,17)"/>
<path d="M0 0 C0.66 0.33 1.32 0.66 2 1 C2 1.66 2 2.32 2 3 C3.32 3.33 4.64 3.66 6 4 C2.7169902 5.6415049 -0.42545033 4.51888624 -4 4 C-3.67 3.34 -3.34 2.68 -3 2 C-2.01 2 -1.02 2 0 2 C0 1.34 0 0.68 0 0 Z " fill="#8D8257" transform="translate(47,45)"/>
<path d="M0 0 C3.35620271 1.38877354 5.07298728 2.91677965 7 6 C7 6.66 7 7.32 7 8 C2.60841671 6.5361389 2.12052567 4.02168662 0 0 Z " fill="#DCA73F" transform="translate(68,30)"/>
<path d="M0 0 C4.875 0.875 4.875 0.875 6 2 C6.04063832 3.66617115 6.042721 5.33388095 6 7 C1.125 2.25 1.125 2.25 0 0 Z " fill="#D7A849" transform="translate(7,29)"/>
<path d="M0 0 C0.66 0 1.32 0 2 0 C0.125 4.75 0.125 4.75 -1 7 C-1.66 7 -2.32 7 -3 7 C-2.25 2.25 -2.25 2.25 0 0 Z " fill="#E7DA93" transform="translate(12,22)"/>
<path d="" fill="#000000" transform="translate(0,0)"/>
<path d="" fill="#000000" transform="translate(0,0)"/>
<path d="" fill="#000000" transform="translate(0,0)"/>
<path d="" fill="#000000" transform="translate(0,0)"/>
<path d="" fill="#000000" transform="translate(0,0)"/>
<path d="" fill="#000000" transform="translate(0,0)"/>
<path d="" fill="#000000" transform="translate(0,0)"/>
<path d="" fill="#000000" transform="translate(0,0)"/>
<path d="" fill="#000000" transform="translate(0,0)"/>
<path d="" fill="#000000" transform="translate(0,0)"/>
<path d="" fill="#000000" transform="translate(0,0)"/>
<path d="" fill="#000000" transform="translate(0,0)"/>
</svg>
