<svg width="24" height="24" viewBox="0 0 24 24" fill="none" xmlns="http://www.w3.org/2000/svg">
<path d="M8 3.5H16C16.9571 3.5 17.6245 3.50064 18.1279 3.56836C18.6168 3.63414 18.8759 3.75477 19.0605 3.93945C19.2452 4.12414 19.3659 4.38316 19.4316 4.87207C19.4994 5.37548 19.5 6.04285 19.5 7V12C19.5 12.9571 19.4994 13.6245 19.4316 14.1279C19.3659 14.6168 19.2452 14.8759 19.0605 15.0605C18.8759 15.2452 18.6168 15.3659 18.1279 15.4316C17.6245 15.4994 16.9571 15.5 16 15.5H6.5C5.75914 15.5 5.04883 15.7766 4.5 16.2686V7C4.5 6.04285 4.50064 5.37548 4.56836 4.87207C4.63414 4.38316 4.75477 4.12414 4.93945 3.93945C5.12414 3.75477 5.38316 3.63414 5.87207 3.56836C6.37548 3.50064 7.04285 3.5 8 3.5ZM9 5.5C8.33696 5.5 7.70126 5.76358 7.23242 6.23242C6.76358 6.70126 6.5 7.33696 6.5 8C6.5 8.66304 6.76358 9.29874 7.23242 9.76758C7.70126 10.2364 8.33696 10.5 9 10.5H15C15.663 10.5 16.2987 10.2364 16.7676 9.76758C17.2364 9.29874 17.5 8.66304 17.5 8C17.5 7.33696 17.2364 6.70126 16.7676 6.23242C16.2987 5.76358 15.663 5.5 15 5.5H9Z" fill="url(#paint0_linear_420_845)" stroke="url(#paint1_linear_420_845)"/>
<path d="M10.5 20.5V21.5H7V20.5H10.5ZM4.56641 19C4.65504 19.3427 4.83134 19.6595 5.08594 19.9141C5.34053 20.1687 5.65726 20.345 6 20.4336V21.4541C5.39009 21.3509 4.82209 21.0643 4.37891 20.6211C3.93568 20.1779 3.64813 19.61 3.54492 19H4.56641ZM4.5 18H3.54492C3.64813 17.39 3.93568 16.8221 4.37891 16.3789C4.41765 16.3402 4.45941 16.3049 4.5 16.2686V18ZM6 16.5654C5.82476 16.6107 5.65668 16.679 5.5 16.7695V15.6748C5.66232 15.6173 5.82924 15.5738 6 15.5449V16.5654ZM15.5 15.5V16.5H7V15.5H15.5ZM19.3672 16.0742C19.0458 16.2638 18.6772 16.367 18.2617 16.4229C17.7847 16.4868 17.2011 16.497 16.5 16.499V15.4961C16.983 15.4946 17.3812 15.4924 17.7168 15.4707L18.1279 15.4316C18.3246 15.4049 18.484 15.368 18.6162 15.3232L19.3672 16.0742ZM4.5 7.5V15.0371C4.20001 15.2104 3.92108 15.4227 3.67188 15.6719C3.6124 15.7314 3.5553 15.7927 3.5 15.8555V7.5H4.5ZM20.499 12.5C20.497 13.2008 20.4868 13.7838 20.4229 14.2617C20.367 14.6771 20.2641 15.0456 20.0742 15.3672L19.3232 14.6162C19.354 14.5252 19.3821 14.4218 19.4043 14.3018L19.4316 14.1279C19.4867 13.7175 19.494 13.1968 19.4961 12.5H20.499ZM20.5 7.5V11.5H19.5V7.5H20.5ZM14.5 9.5V10.5H9.5V9.5H14.5ZM7.58789 8.5C7.66179 8.7087 7.77992 8.90101 7.93945 9.06055C8.09899 9.22008 8.29131 9.33821 8.5 9.41211V10.4482C8.02337 10.3509 7.58155 10.1167 7.23242 9.76758C6.88329 9.41845 6.64911 8.97663 6.55176 8.5H7.58789ZM17.4482 8.5C17.3509 8.97663 17.1167 9.41845 16.7676 9.76758C16.4184 10.1167 15.9766 10.3509 15.5 10.4482V9.41211C15.7087 9.33821 15.901 9.22008 16.0605 9.06055C16.2201 8.90101 16.3382 8.7087 16.4121 8.5H17.4482ZM15.5 5.55078C15.9767 5.6481 16.4184 5.88325 16.7676 6.23242C17.1167 6.58155 17.3509 7.02337 17.4482 7.5H16.4121C16.3382 7.29131 16.2201 7.09899 16.0605 6.93945C15.9009 6.77984 15.7088 6.6608 15.5 6.58691V5.55078ZM8.5 6.58691C8.29119 6.6608 8.09906 6.77984 7.93945 6.93945C7.77992 7.09899 7.66179 7.29131 7.58789 7.5H6.55176C6.64911 7.02337 6.88329 6.58155 7.23242 6.23242C7.5816 5.88324 8.0233 5.64811 8.5 5.55078V6.58691ZM20.0742 3.63184C20.2641 3.95335 20.367 4.32246 20.4229 4.73828C20.4868 5.21532 20.497 5.79888 20.499 6.5H19.4961C19.4946 6.01657 19.4924 5.61787 19.4707 5.28223L19.4316 4.87207L19.4043 4.69824C19.3821 4.5778 19.3542 4.47405 19.3232 4.38281L20.0742 3.63184ZM14.5 5.5V6.5H9.5V5.5H14.5ZM4.67578 4.38281C4.64491 4.47398 4.61792 4.57793 4.5957 4.69824L4.56836 4.87207C4.51328 5.2825 4.506 5.80318 4.50391 6.5H3.50098C3.50296 5.79918 3.51323 5.21616 3.57715 4.73828C3.63299 4.3228 3.73484 3.95354 3.9248 3.63184L4.67578 4.38281ZM7.5 3.50293C6.80296 3.50502 6.28178 3.51326 5.87207 3.56836C5.67511 3.59514 5.51517 3.63096 5.38281 3.67578L4.63184 2.9248C4.95325 2.73507 5.32265 2.63301 5.73828 2.57715C6.21532 2.51324 6.79888 2.50198 7.5 2.5V3.50293ZM16.5 2.5C17.2008 2.50198 17.7838 2.51323 18.2617 2.57715C18.6769 2.63295 19.0457 2.73512 19.3672 2.9248L18.6162 3.67578C18.484 3.63111 18.3245 3.59508 18.1279 3.56836L17.7168 3.5293C17.3812 3.50764 16.983 3.50438 16.5 3.50293V2.5ZM15.5 2.5V3.5H8.5V2.5H15.5Z" fill="url(#paint2_linear_420_845)" stroke="url(#paint3_linear_420_845)"/>
<path d="M20 21H10H20Z" fill="url(#paint4_linear_420_845)"/>
<path d="M20 21H10" stroke="url(#paint5_linear_420_845)" stroke-width="2" stroke-linecap="round"/>
<defs>
<linearGradient id="paint0_linear_420_845" x1="4" y1="10.75" x2="20" y2="10.75" gradientUnits="userSpaceOnUse">
<stop stop-color="#F4D990"/>
<stop offset="1" stop-color="#CB9B3D"/>
</linearGradient>
<linearGradient id="paint1_linear_420_845" x1="4" y1="10.75" x2="20" y2="10.75" gradientUnits="userSpaceOnUse">
<stop stop-color="#F4D990"/>
<stop offset="1" stop-color="#CB9B3D"/>
</linearGradient>
<linearGradient id="paint2_linear_420_845" x1="3" y1="12" x2="21" y2="12" gradientUnits="userSpaceOnUse">
<stop stop-color="#F4D990"/>
<stop offset="1" stop-color="#CB9B3D"/>
</linearGradient>
<linearGradient id="paint3_linear_420_845" x1="3" y1="12" x2="21" y2="12" gradientUnits="userSpaceOnUse">
<stop stop-color="#F4D990"/>
<stop offset="1" stop-color="#CB9B3D"/>
</linearGradient>
<linearGradient id="paint4_linear_420_845" x1="10" y1="21.5" x2="20" y2="21.5" gradientUnits="userSpaceOnUse">
<stop stop-color="#F4D990"/>
<stop offset="1" stop-color="#CB9B3D"/>
</linearGradient>
<linearGradient id="paint5_linear_420_845" x1="10" y1="21.5" x2="20" y2="21.5" gradientUnits="userSpaceOnUse">
<stop stop-color="#F4D990"/>
<stop offset="1" stop-color="#CB9B3D"/>
</linearGradient>
</defs>
</svg>
